<svg class="logo" xmlns="http://www.w3.org/2000/svg" viewBox="0 0 398 50"><desc>Procore Logo</desc><g id="PROCORE-2" data-name="PROCORE"><path d="M219.15,11.5q0-6.73-2.52-9.08T207.18.08H178.37q-6.93,0-9.45,2.34C167.23,4,166.4,7,166.4,11.5V37c0,4.49.83,7.52,2.52,9.08s4.83,2.34,9.45,2.34h28.81q6.91,0,9.45-2.34c1.68-1.55,2.52-4.58,2.52-9.06V30.62h-12.1l-4.92,8.52H184.54l-8.79-15.23,8.79-15.24h17.59l4.8,8.31h12.22Z" style="fill:#282828"/><path d="M162.73,30.62V37c0,4.48-.84,7.51-2.52,9.06s-4.84,2.34-9.45,2.34H122q-6.93,0-9.45-2.34T110,37V11.5c0-4.5.84-7.52,2.53-9.08S117.33.08,122,.08h28.81q6.92,0,9.45,2.34t2.52,9.08V30.62Zm-43.4-6.71,8.79,15.23h17.59l8.79-15.23L145.7,8.67H128.12Z" style="fill:#282828"/><path d="M275.41,30.62V37c0,4.48-.84,7.51-2.53,9.06s-4.83,2.34-9.45,2.34H234.62q-6.92,0-9.45-2.34T222.65,37V11.5c0-4.5.84-7.52,2.52-9.08S230,.08,234.62.08h28.81q6.93,0,9.45,2.34t2.53,9.08V30.62ZM232,23.91l8.79,15.23h17.6l8.79-15.23-8.8-15.24H240.79Z" style="fill:#282828"/><polygon points="183.53 23.91 188.43 32.4 198.24 32.4 203.13 23.91 198.24 15.42 188.43 15.41 183.53 23.91" style="fill:#F47E42"/><path d="M0,48.31V0H39.82C48.29,0,52,3.88,52,9.71V21c0,5.44-3.24,9.71-12.18,9.71H13.34V48.31ZM34.64,10.74H13.34v9.17h21.3a8.13,8.13,0,0,0,3.08-.4,2.37,2.37,0,0,0,1.19-2.34V13.49a2.37,2.37,0,0,0-1.19-2.34A8.09,8.09,0,0,0,34.64,10.74Z" style="fill:#282828"/><path d="M54.7,48.31V0H94.49c8.46,0,12.19,3.88,12.19,9.71V21c0,5.44-3.24,9.71-12.18,9.71H92.85L114,48.31H94.45L75.7,30.66H68V48.31ZM89.31,10.74H68v9.17H89.31a8.13,8.13,0,0,0,3.08-.4,2.37,2.37,0,0,0,1.18-2.34V13.49a2.37,2.37,0,0,0-1.18-2.34A8.09,8.09,0,0,0,89.31,10.74Z" style="fill:#282828"/><path d="M279.16,48.31V0H319c8.46,0,12.19,3.88,12.19,9.71V21c0,5.44-3.24,9.71-12.19,9.71h-1.64l21.15,17.65H318.91L300.16,30.66h-7.7V48.31Zm34.61-37.57H292.46v9.17h21.31a8.13,8.13,0,0,0,3.08-.4A2.37,2.37,0,0,0,318,17.17V13.49a2.37,2.37,0,0,0-1.18-2.34A8.09,8.09,0,0,0,313.77,10.74Z" style="fill:#282828"/><path d="M334.45,48.31V0H383.8V10.63H347.91v7.3h20.92v10.6H347.91V37h36.3V48.31Z" style="fill:#282828"/><path d="M398,5.27A5.42,5.42,0,1,1,392.6,0,5.29,5.29,0,0,1,398,5.27Zm-9.48,0a4.09,4.09,0,0,0,4.11,4.21,4,4,0,0,0,4-4.18,4.07,4.07,0,1,0-8.13,0ZM391.77,8h-1.22V2.76a11.15,11.15,0,0,1,2-.16A3.2,3.2,0,0,1,394.4,3a1.45,1.45,0,0,1,.52,1.15,1.36,1.36,0,0,1-1.1,1.23v.06a1.55,1.55,0,0,1,1,1.28A4,4,0,0,0,395.17,8h-1.31a4.42,4.42,0,0,1-.42-1.28c-.1-.58-.42-.84-1.09-.84h-.58Zm0-3h.58c.67,0,1.22-.22,1.22-.77s-.35-.8-1.13-.8a3.09,3.09,0,0,0-.67.06Z" style="fill:#282828"/></g></svg>